<svg width="32" height="32" viewBox="0 0 32 32" fill="none" xmlns="http://www.w3.org/2000/svg">
<g clip-path="url(#clip0_1_122)">
<path d="M7.5 16.5L11 19.5V2.5L12.5 1H14L15.5 2.5V9.5L17 9H18.5L19.5 10L20 11L21.75 10H23L24.1875 11.5L25 12L26 11.5H27.5L29 13V22.5L28.5 24.5L26.5 28.5L23 30.5L19 31.5L15.5 30L11.5 26.5L3 17.5L4 16.5L6 16L7.5 16.5Z" fill="white"/>
<path d="M26.6435 10.7901C26.0288 10.7901 25.4585 10.9852 24.9887 11.3166C24.6748 10.0374 23.5312 9.08646 22.1721 9.08646C21.4898 9.08646 20.8621 9.32669 20.3661 9.72718C19.9203 8.68332 18.8936 7.95071 17.7008 7.95071C17.1229 7.95071 16.5845 8.12323 16.1318 8.41905V2.93829C16.1318 1.31809 14.8298 0 13.2295 0C11.6291 0 10.3271 1.31809 10.3271 2.93829V17.8649L8.6523 16.2893C7.89417 15.5274 6.88998 15.1083 5.82214 15.1083C5.81876 15.1083 5.81537 15.1083 5.81199 15.1083C4.73609 15.111 3.72615 15.5387 2.96828 16.3127C2.28036 17.0151 2.28327 18.1552 2.97465 18.8543L12.8681 28.8538C14.6836 30.8536 17.2581 32.0001 19.9365 32.0001C25.2351 32.0001 29.5458 27.6249 29.5458 22.247V17.1359V16.5679V13.7284C29.5458 12.1082 28.2439 10.7901 26.6435 10.7901ZM28.2124 16.5679V17.1358V22.247C28.2124 26.8896 24.4998 30.6667 19.9365 30.6667C17.6251 30.6667 15.4025 29.6726 13.8384 27.9394C13.834 27.9346 13.8292 27.9304 13.8247 27.9257C13.8221 27.9229 13.8198 27.92 13.8172 27.9173L3.9225 17.9165C3.74003 17.732 3.73928 17.431 3.92088 17.2455C4.42673 16.7289 5.09955 16.4434 5.8153 16.4417C5.81761 16.4417 5.8197 16.4417 5.82201 16.4417C6.53505 16.4417 7.20652 16.7235 7.71318 17.2358C7.7188 17.2415 7.72449 17.2471 7.73031 17.2525L10.537 19.893C10.7308 20.0753 11.0143 20.1248 11.2583 20.0194C11.5024 19.9138 11.6605 19.6733 11.6605 19.4074V2.93829C11.6605 2.05334 12.3643 1.33332 13.2295 1.33332C14.0946 1.33332 14.7984 2.05334 14.7984 2.93829V10.8889V12.5926V13.1605C14.7984 13.5287 15.097 13.8272 15.4651 13.8272C15.8332 13.8272 16.1318 13.5286 16.1318 13.1605V12.5926V10.8889C16.1318 10.0039 16.8356 9.28396 17.7008 9.28396C18.566 9.28396 19.2698 10.0039 19.2698 10.8889V12.0247V14.2963C19.2698 14.6645 19.5683 14.963 19.9365 14.963C20.3046 14.963 20.6031 14.6644 20.6031 14.2963V12.0247C20.6031 11.1397 21.3069 10.4197 22.1721 10.4197C23.0372 10.4197 23.7411 11.1397 23.7411 12.0247V15.4321C23.7411 15.8003 24.0396 16.0987 24.4077 16.0987C24.7759 16.0987 25.0744 15.8002 25.0744 15.4321V13.7284C25.0744 12.8434 25.7782 12.1234 26.6434 12.1234C27.5085 12.1234 28.2124 12.8434 28.2124 13.7284V16.5679H28.2124Z" fill="black"/>
</g>
<defs>
<clipPath id="clip0_1_122">
<rect width="32" height="32" fill="white"/>
</clipPath>
</defs>
</svg>
